<?xml version="1.0" standalone="no"?>
<!DOCTYPE svg PUBLIC "-//W3C//DTD SVG 20010904//EN"
 "http://www.w3.org/TR/2001/REC-SVG-20010904/DTD/svg10.dtd">
<svg version="1.0" xmlns="http://www.w3.org/2000/svg"
 width="500.000000pt" height="500.000000pt" viewBox="0 0 500.000000 500.000000"
 preserveAspectRatio="xMidYMid meet">

<g transform="translate(0.000000,500.000000) scale(0.100000,-0.100000)"
fill="rgb(159, 166, 188)" stroke="none">
<path d="M1658 3437 l-136 -274 79 -43 c44 -23 82 -40 83 -39 2 2 65 125 141
273 132 257 137 270 119 283 -23 18 -131 73 -141 73 -5 0 -70 -123 -145 -273z
m10 -203 c26 -18 28 -50 5 -76 -20 -22 -41 -23 -65 -1 -25 22 -23 59 4 77 12
9 25 16 28 16 3 0 16 -7 28 -16z"/>
<path d="M1621 3206 c-9 -10 -8 -16 4 -26 21 -17 51 6 34 26 -6 8 -15 14 -19
14 -4 0 -13 -6 -19 -14z"/>
<path d="M3117 3676 c-31 -18 -62 -37 -68 -43 -7 -7 30 -91 126 -283 112 -225
139 -271 153 -265 45 17 142 77 142 88 -1 25 -268 532 -281 533 -8 1 -40 -13
-72 -30z m271 -442 c30 -21 29 -59 -3 -80 -55 -36 -106 26 -60 72 28 28 33 29
63 8z"/>
<path d="M3342 3207 c-15 -17 1 -42 23 -33 18 6 17 37 -1 43 -6 2 -16 -2 -22
-10z"/>
<path d="M2235 3579 c-136 -35 -179 -41 -225 -28 -11 3 -46 -56 -127 -216 -62
-121 -112 -225 -113 -231 0 -5 21 -20 46 -33 l47 -22 30 30 c40 42 96 43 136
3 15 -15 30 -34 33 -42 4 -13 8 -12 25 3 46 40 134 8 151 -56 7 -26 13 -32 33
-29 55 6 116 -61 106 -115 -4 -19 0 -23 22 -23 15 0 35 -6 46 -14 11 -7 28
-15 38 -17 9 -2 43 -38 75 -79 64 -83 98 -98 139 -63 45 39 42 53 -50 180 -17
24 -27 46 -23 50 8 8 11 5 88 -95 39 -51 53 -62 77 -62 33 0 66 25 75 56 6 21
-1 35 -77 141 -61 84 -24 71 40 -14 69 -91 99 -107 141 -76 46 34 41 67 -26
159 -84 114 -182 215 -281 290 -84 62 -87 64 -147 64 -54 0 -74 -6 -161 -50
-140 -72 -207 -78 -232 -24 -10 23 -8 34 14 80 14 30 45 70 68 90 47 39 212
145 240 152 27 7 1 32 -32 31 -14 -1 -93 -19 -176 -40z"/>
<path d="M2451 3564 c-127 -67 -183 -104 -239 -158 -71 -67 -91 -125 -52 -146
26 -14 116 10 169 46 52 34 143 64 194 64 34 0 58 -9 106 -40 80 -52 226 -193
308 -297 36 -46 67 -83 70 -83 15 0 233 124 233 133 0 5 -40 86 -89 181 -49
94 -102 199 -119 232 l-31 61 -38 -10 c-33 -9 -62 -4 -203 32 -91 22 -174 41
-185 41 -11 0 -67 -25 -124 -56z"/>
<path d="M1894 3043 c-50 -55 -61 -86 -39 -119 39 -61 87 -55 144 17 48 60 51
86 15 123 -40 39 -70 34 -120 -21z"/>
<path d="M2112 3033 c-28 -11 -132 -156 -132 -183 0 -36 38 -70 78 -70 27 0
40 10 88 68 31 37 60 78 65 91 23 57 -42 117 -99 94z"/>
<path d="M2243 2924 c-16 -7 -121 -146 -123 -164 -7 -53 27 -93 75 -88 41 4
155 139 155 184 0 52 -57 88 -107 68z"/>
<path d="M2324 2754 c-57 -63 -79 -104 -70 -137 8 -32 58 -61 90 -53 30 7 126
133 126 163 0 31 -46 73 -78 73 -17 0 -39 -15 -68 -46z"/>
<path d="M2490 2722 c0 -16 -13 -47 -30 -70 -16 -23 -30 -46 -30 -52 0 -6 15
-17 33 -26 31 -15 36 -15 65 0 49 25 51 57 8 121 -20 30 -38 55 -41 55 -3 0
-5 -13 -5 -28z"/>
<path d="M1428 2430 c-240 -29 -435 -182 -500 -395 -17 -52 -22 -95 -22 -170
0 -268 143 -451 398 -510 136 -32 371 -15 507 36 47 17 58 26 62 48 10 50 20
181 14 181 -4 0 -19 -25 -33 -55 -15 -31 -49 -76 -76 -101 -68 -63 -125 -87
-227 -92 -152 -8 -254 30 -357 132 -125 125 -185 330 -155 526 23 150 108 274
224 330 197 95 451 35 558 -131 18 -27 36 -49 41 -49 10 0 10 36 1 120 -6 62
-7 63 -47 81 -88 38 -276 62 -388 49z"/>
<path d="M2040 2419 c0 -8 9 -20 19 -26 37 -23 41 -74 41 -508 0 -434 -4 -486
-40 -505 -43 -23 -17 -30 105 -30 69 0 125 2 125 5 0 3 -12 17 -27 30 l-28 23
-3 246 -3 246 82 0 c152 0 185 -32 288 -285 72 -175 96 -221 133 -248 42 -31
178 -36 178 -7 0 6 -11 10 -25 10 -47 0 -83 57 -164 262 -24 59 -56 127 -71
152 -34 53 -99 103 -146 112 -37 7 -47 24 -14 24 31 0 118 36 156 65 61 46 87
100 92 186 4 67 1 82 -19 118 -56 100 -156 130 -466 138 -180 5 -213 4 -213
-8z m391 -35 c114 -32 178 -116 179 -232 0 -75 -15 -116 -61 -160 -45 -43
-112 -62 -226 -62 l-93 0 0 235 0 235 72 0 c39 0 98 -7 129 -16z"/>
<path d="M2945 2421 c-3 -5 8 -18 25 -27 62 -37 64 -57 68 -489 4 -443 1 -484
-33 -517 -14 -13 -25 -26 -25 -30 0 -5 43 -8 95 -8 97 0 116 9 68 32 -15 7
-36 29 -47 48 -20 33 -21 53 -24 440 -2 222 0 401 4 397 4 -4 92 -146 194
-315 103 -169 194 -308 202 -310 10 -2 78 103 209 325 l194 328 3 -409 c2
-423 -1 -472 -39 -504 -10 -9 -19 -20 -19 -24 0 -5 56 -8 125 -8 69 0 125 2
125 4 0 3 -13 17 -29 33 -26 27 -29 38 -36 124 -11 144 0 767 14 811 7 21 27
50 46 65 18 15 31 31 29 35 -3 4 -41 8 -84 8 -75 0 -80 -1 -97 -27 -11 -16
-100 -164 -198 -330 -99 -167 -182 -303 -185 -303 -3 1 -94 149 -204 330
l-198 330 -88 0 c-49 0 -91 -4 -95 -9z"/>
</g>
</svg>
